<svg width="167" height="197" viewBox="0 0 167 197" fill="none" xmlns="http://www.w3.org/2000/svg">
<g filter="url(#filter0_d_3_37)">
<path d="M7.67473 56.7812C7.67473 52.7921 9.23569 49.6268 12.3576 47.2853C15.4795 44.8572 19.7288 43.6431 25.1055 43.6431L52.4223 112.325L49.4305 120.52L50.7313 121.041L79.9993 43.7732C85.2892 43.7732 89.4951 44.9873 92.6171 47.4154C95.8257 49.7569 97.43 52.9221 97.43 56.9113V137.171C86.0697 137.171 80.3895 132.921 80.3895 124.423V82.7972L84.8123 70.8298L83.3814 70.3095L59.5767 132.488C58.9697 133.875 58.0157 135.003 56.7149 135.87C55.5009 136.737 54.1133 137.171 52.5524 137.171C50.9914 137.171 49.5605 136.737 48.2597 135.87C47.0457 135.003 46.1351 133.832 45.5281 132.358L21.7234 70.1794L20.2925 70.6998L24.5851 82.6671V124.423C24.5851 132.921 18.9483 137.171 7.67473 137.171V56.7812Z" fill="#5D5AE1"/>
</g>
<g filter="url(#filter1_d_3_37)">
<path d="M121.018 164.271C113.3 164.271 106.406 162.797 100.335 159.848C94.3515 156.9 89.6686 152.78 86.2865 147.49C82.9044 142.2 81.2134 136.173 81.2134 129.409V105.475C81.2134 98.7104 82.861 92.7267 86.1564 87.5235C89.5385 82.2335 94.178 78.1577 100.075 75.2959C105.972 72.3475 112.736 70.8732 120.367 70.8732C127.999 70.8732 134.763 72.0439 140.66 74.3854C146.644 76.6401 151.283 79.8487 154.579 84.0113C157.874 88.0872 159.522 92.77 159.522 98.06C159.522 101.269 158.438 103.827 156.27 105.735C154.188 107.556 151.37 108.466 147.814 108.466C146.08 108.466 144.172 108.206 142.091 107.686C142.264 105.605 142.351 103.567 142.351 101.572C142.351 96.976 140.313 93.247 136.237 90.3852C132.161 87.5235 126.871 86.0926 120.367 86.0926C113.95 86.0926 108.704 87.9137 104.628 91.556C100.639 95.1115 98.6441 99.751 98.6441 105.475V129.409C98.6441 135.22 100.725 139.946 104.888 143.588C109.051 147.23 114.427 149.051 121.018 149.051C127.522 149.051 132.812 147.62 136.888 144.759C140.964 141.897 143.001 138.211 143.001 133.702C143.001 131.621 142.915 129.626 142.741 127.718C144.909 127.285 146.73 127.068 148.205 127.068C151.847 127.068 154.752 128.022 156.92 129.93C159.088 131.837 160.172 134.439 160.172 137.734C160.172 142.851 158.524 147.447 155.229 151.523C151.934 155.512 147.294 158.634 141.31 160.889C135.413 163.143 128.649 164.271 121.018 164.271Z" fill="#5D5AE1"/>
</g>
<defs>
<filter id="filter0_d_3_37" x="1.5649" y="43.6431" width="101.975" height="105.747" filterUnits="userSpaceOnUse" color-interpolation-filters="sRGB">
<feFlood flood-opacity="0" result="BackgroundImageFix"/>
<feColorMatrix in="SourceAlpha" type="matrix" values="0 0 0 0 0 0 0 0 0 0 0 0 0 0 0 0 0 0 127 0" result="hardAlpha"/>
<feOffset dy="6.10983"/>
<feGaussianBlur stdDeviation="3.05491"/>
<feComposite in2="hardAlpha" operator="out"/>
<feColorMatrix type="matrix" values="0 0 0 0 0 0 0 0 0 0 0 0 0 0 0 0 0 0 0.25 0"/>
<feBlend mode="normal" in2="BackgroundImageFix" result="effect1_dropShadow_3_37"/>
<feBlend mode="normal" in="SourceGraphic" in2="effect1_dropShadow_3_37" result="shape"/>
</filter>
<filter id="filter1_d_3_37" x="75.1035" y="70.8732" width="91.1783" height="105.617" filterUnits="userSpaceOnUse" color-interpolation-filters="sRGB">
<feFlood flood-opacity="0" result="BackgroundImageFix"/>
<feColorMatrix in="SourceAlpha" type="matrix" values="0 0 0 0 0 0 0 0 0 0 0 0 0 0 0 0 0 0 127 0" result="hardAlpha"/>
<feOffset dy="6.10983"/>
<feGaussianBlur stdDeviation="3.05491"/>
<feComposite in2="hardAlpha" operator="out"/>
<feColorMatrix type="matrix" values="0 0 0 0 0 0 0 0 0 0 0 0 0 0 0 0 0 0 0.25 0"/>
<feBlend mode="normal" in2="BackgroundImageFix" result="effect1_dropShadow_3_37"/>
<feBlend mode="normal" in="SourceGraphic" in2="effect1_dropShadow_3_37" result="shape"/>
</filter>
</defs>
</svg>
